<svg width="46" height="46" viewBox="0 0 46 46" fill="none" xmlns="http://www.w3.org/2000/svg">
<path d="M32.644 10.5178C32.199 10.5178 31.7639 10.6497 31.3939 10.897C31.0239 11.1442 30.7355 11.4956 30.5652 11.9067C30.3949 12.3179 30.3504 12.7703 30.4372 13.2067C30.524 13.6432 30.7383 14.0441 31.053 14.3588C31.3676 14.6734 31.7686 14.8877 32.205 14.9745C32.6415 15.0614 33.0939 15.0168 33.505 14.8465C33.9161 14.6762 34.2675 14.3878 34.5148 14.0178C34.762 13.6478 34.894 13.2128 34.894 12.7678C34.894 12.171 34.6569 11.5987 34.235 11.1768C33.813 10.7548 33.2407 10.5178 32.644 10.5178ZM41.269 15.0553C41.2325 13.4996 40.9411 11.9604 40.4065 10.499C39.9297 9.24865 39.1877 8.11642 38.2315 7.18027C37.303 6.2192 36.1681 5.48185 34.9127 5.02402C33.4552 4.47307 31.9143 4.17504 30.3565 4.14277C28.369 4.03027 27.7315 4.03027 22.6315 4.03027C17.5315 4.03027 16.894 4.03027 14.9065 4.14277C13.3486 4.17504 11.8077 4.47307 10.3502 5.02402C9.09711 5.48649 7.96322 6.2232 7.03147 7.18027C6.07039 8.10873 5.33305 9.2436 4.87522 10.499C4.32427 11.9565 4.02624 13.4974 3.99397 15.0553C3.88147 17.0428 3.88147 17.6803 3.88147 22.7803C3.88147 27.8803 3.88147 28.5178 3.99397 30.5053C4.02624 32.0631 4.32427 33.604 4.87522 35.0615C5.33305 36.3169 6.07039 37.4518 7.03147 38.3803C7.96322 39.3373 9.09711 40.0741 10.3502 40.5365C11.8077 41.0875 13.3486 41.3855 14.9065 41.4178C16.894 41.5303 17.5315 41.5303 22.6315 41.5303C27.7315 41.5303 28.369 41.5303 30.3565 41.4178C31.9143 41.3855 33.4552 41.0875 34.9127 40.5365C36.1681 40.0787 37.303 39.3413 38.2315 38.3803C39.1919 37.4476 39.9346 36.3144 40.4065 35.0615C40.9411 33.6001 41.2325 32.061 41.269 30.5053C41.269 28.5178 41.3815 27.8803 41.3815 22.7803C41.3815 17.6803 41.3815 17.0428 41.269 15.0553ZM37.894 30.2803C37.8803 31.4705 37.6648 32.6497 37.2565 33.7678C36.9571 34.5838 36.4762 35.3211 35.8502 35.924C35.2421 36.5437 34.5063 37.0236 33.694 37.3303C32.5759 37.7386 31.3967 37.9541 30.2065 37.9678C28.3315 38.0615 27.6377 38.0803 22.7065 38.0803C17.7752 38.0803 17.0815 38.0803 15.2065 37.9678C13.9706 37.9909 12.7401 37.8006 11.569 37.4053C10.7923 37.0829 10.0903 36.6042 9.50647 35.999C8.88414 35.3967 8.4093 34.6588 8.11897 33.8428C7.6612 32.7087 7.4073 31.5027 7.36897 30.2803C7.36897 28.4053 7.25647 27.7115 7.25647 22.7803C7.25647 17.849 7.25647 17.1553 7.36897 15.2803C7.37737 14.0635 7.5995 12.8577 8.02522 11.7178C8.35531 10.9264 8.86197 10.2209 9.50647 9.65527C10.0761 9.01059 10.7801 8.49858 11.569 8.15527C12.7119 7.74285 13.9165 7.5273 15.1315 7.51777C17.0065 7.51777 17.7002 7.40527 22.6315 7.40527C27.5627 7.40527 28.2565 7.40527 30.1315 7.51777C31.3217 7.53142 32.5009 7.74698 33.619 8.15527C34.471 8.4715 35.2358 8.98561 35.8502 9.65527C36.4647 10.2312 36.9448 10.9354 37.2565 11.7178C37.6732 12.8595 37.8889 14.0649 37.894 15.2803C37.9877 17.1553 38.0065 17.849 38.0065 22.7803C38.0065 27.7115 37.9877 28.4053 37.894 30.2803ZM22.6315 13.1615C20.7299 13.1652 18.872 13.7325 17.2927 14.7917C15.7134 15.8509 14.4834 17.3544 13.7583 19.1123C13.0331 20.8702 12.8453 22.8036 13.2186 24.6683C13.5918 26.5329 14.5094 28.245 15.8554 29.5884C17.2013 30.9317 18.9152 31.8459 20.7806 32.2155C22.6459 32.5852 24.579 32.3936 26.3355 31.665C28.092 30.9365 29.5931 29.7036 30.6492 28.1222C31.7053 26.5408 32.269 24.6819 32.269 22.7803C32.2714 21.5148 32.0237 20.2614 31.54 19.0921C31.0564 17.9227 30.3463 16.8605 29.4506 15.9666C28.5549 15.0727 27.4914 14.3647 26.3211 13.8833C25.1508 13.4019 23.8969 13.1566 22.6315 13.1615ZM22.6315 29.024C21.3966 29.024 20.1894 28.6578 19.1626 27.9718C18.1358 27.2857 17.3356 26.3105 16.863 25.1697C16.3904 24.0288 16.2668 22.7733 16.5077 21.5622C16.7486 20.351 17.3433 19.2385 18.2165 18.3653C19.0897 17.4921 20.2022 16.8974 21.4134 16.6565C22.6245 16.4156 23.88 16.5392 25.0208 17.0118C26.1617 17.4844 27.1369 18.2846 27.823 19.3114C28.509 20.3382 28.8752 21.5454 28.8752 22.7803C28.8752 23.6002 28.7137 24.4121 28.3999 25.1697C28.0862 25.9272 27.6263 26.6155 27.0465 27.1953C26.4667 27.7751 25.7784 28.235 25.0208 28.5487C24.2633 28.8625 23.4514 29.024 22.6315 29.024Z" fill="white"/>
</svg>
