<svg width="51" height="51" viewBox="0 0 51 51" fill="none" xmlns="http://www.w3.org/2000/svg">
<path d="M36.5999 11.8038C36.1055 11.8038 35.6221 11.9504 35.211 12.2251C34.7999 12.4998 34.4795 12.8903 34.2902 13.3471C34.101 13.8039 34.0515 14.3066 34.148 14.7915C34.2444 15.2765 34.4825 15.7219 34.8322 16.0716C35.1818 16.4212 35.6273 16.6593 36.1122 16.7558C36.5972 16.8522 37.0998 16.8027 37.5566 16.6135C38.0135 16.4243 38.4039 16.1038 38.6786 15.6927C38.9533 15.2816 39.0999 14.7982 39.0999 14.3038C39.0999 13.6408 38.8365 13.0049 38.3677 12.536C37.8989 12.0672 37.263 11.8038 36.5999 11.8038ZM46.1833 16.8455C46.1428 15.1169 45.819 13.4067 45.2249 11.783C44.6952 10.3937 43.8707 9.13562 42.8083 8.09546C41.7766 7.0276 40.5157 6.20833 39.1208 5.69963C37.5013 5.08746 35.7892 4.75631 34.0583 4.72046C31.8499 4.59546 31.1416 4.59546 25.4749 4.59546C19.8083 4.59546 19.0999 4.59546 16.8916 4.72046C15.1607 4.75631 13.4486 5.08746 11.8291 5.69963C10.4368 6.21348 9.17688 7.03204 8.1416 8.09546C7.07374 9.12708 6.25447 10.388 5.74577 11.783C5.1336 13.4024 4.80246 15.1145 4.7666 16.8455C4.6416 19.0538 4.6416 19.7621 4.6416 25.4288C4.6416 31.0955 4.6416 31.8038 4.7666 34.0121C4.80246 35.7431 5.1336 37.4552 5.74577 39.0746C6.25447 40.4695 7.07374 41.7305 8.1416 42.7621C9.17688 43.8255 10.4368 44.6441 11.8291 45.158C13.4486 45.7701 15.1607 46.1013 16.8916 46.1371C19.0999 46.2621 19.8083 46.2621 25.4749 46.2621C31.1416 46.2621 31.8499 46.2621 34.0583 46.1371C35.7892 46.1013 37.5013 45.7701 39.1208 45.158C40.5157 44.6493 41.7766 43.83 42.8083 42.7621C43.8754 41.7258 44.7006 40.4667 45.2249 39.0746C45.819 37.4509 46.1428 35.7407 46.1833 34.0121C46.1833 31.8038 46.3083 31.0955 46.3083 25.4288C46.3083 19.7621 46.3083 19.0538 46.1833 16.8455ZM42.4333 33.7621C42.4181 35.0846 42.1786 36.3948 41.7249 37.6371C41.3923 38.5438 40.858 39.363 40.1624 40.033C39.4867 40.7215 38.6692 41.2547 37.7666 41.5955C36.5243 42.0491 35.214 42.2886 33.8916 42.3038C31.8083 42.408 31.0374 42.4288 25.5583 42.4288C20.0791 42.4288 19.3083 42.4288 17.2249 42.3038C15.8518 42.3295 14.4845 42.1181 13.1833 41.6788C12.3203 41.3206 11.5403 40.7888 10.8916 40.1163C10.2001 39.447 9.67253 38.6271 9.34994 37.7205C8.8413 36.4604 8.55919 35.1203 8.5166 33.7621C8.5166 31.6788 8.3916 30.908 8.3916 25.4288C8.3916 19.9496 8.3916 19.1788 8.5166 17.0955C8.52594 15.7435 8.77275 14.4037 9.24577 13.1371C9.61253 12.2578 10.1755 11.4739 10.8916 10.8455C11.5245 10.1291 12.3068 9.56024 13.1833 9.17879C14.4532 8.72055 15.7916 8.48104 17.1416 8.47046C19.2249 8.47046 19.9958 8.34546 25.4749 8.34546C30.9541 8.34546 31.7249 8.34546 33.8083 8.47046C35.1307 8.48563 36.441 8.72514 37.6833 9.17879C38.63 9.53015 39.4797 10.1014 40.1624 10.8455C40.8451 11.4854 41.3786 12.2678 41.7249 13.1371C42.188 14.4057 42.4276 15.745 42.4333 17.0955C42.5374 19.1788 42.5583 19.9496 42.5583 25.4288C42.5583 30.908 42.5374 31.6788 42.4333 33.7621ZM25.4749 14.7413C23.362 14.7454 21.2978 15.3757 19.543 16.5526C17.7882 17.7294 16.4216 19.4 15.6158 21.3533C14.8101 23.3065 14.6014 25.4548 15.0162 27.5266C15.4309 29.5984 16.4504 31.5007 17.9459 32.9933C19.4414 34.4859 21.3458 35.5017 23.4184 35.9124C25.491 36.3231 27.6388 36.1103 29.5905 35.3007C31.5422 34.4912 33.2101 33.1214 34.3835 31.3643C35.557 29.6072 36.1833 27.5417 36.1833 25.4288C36.186 24.0228 35.9108 22.6301 35.3734 21.3308C34.8359 20.0315 34.0469 18.8513 33.0517 17.8581C32.0566 16.8648 30.8748 16.0781 29.5745 15.5432C28.2742 15.0083 26.881 14.7358 25.4749 14.7413ZM25.4749 32.3663C24.1028 32.3663 22.7615 31.9594 21.6207 31.1971C20.4798 30.4348 19.5906 29.3513 19.0655 28.0837C18.5404 26.816 18.4031 25.4211 18.6707 24.0754C18.9384 22.7296 19.5992 21.4935 20.5694 20.5232C21.5396 19.553 22.7758 18.8923 24.1215 18.6246C25.4672 18.3569 26.8621 18.4943 28.1298 19.0194C29.3975 19.5445 30.481 20.4337 31.2433 21.5745C32.0056 22.7154 32.4124 24.0567 32.4124 25.4288C32.4124 26.3398 32.233 27.242 31.8844 28.0837C31.5357 28.9254 31.0247 29.6901 30.3805 30.3343C29.7363 30.9786 28.9715 31.4896 28.1298 31.8382C27.2881 32.1868 26.386 32.3663 25.4749 32.3663Z" fill="#FF00C8"/>
</svg>
