<svg width="36" height="36" viewBox="0 0 36 36" fill="none" xmlns="http://www.w3.org/2000/svg">
<g clip-path="url(#clip0_22_30)">
<path d="M17.8601 35.8994C27.5251 35.8994 35.3601 28.0644 35.3601 18.3994C35.3601 8.73443 27.5251 0.899414 17.8601 0.899414C8.19512 0.899414 0.360107 8.73443 0.360107 18.3994C0.360107 28.0644 8.19512 35.8994 17.8601 35.8994Z" fill="black"/>
<path d="M24.9651 26.6478C24.6691 26.6478 24.4853 26.5573 24.2097 26.3955C19.807 23.7413 14.6839 23.6305 9.62346 24.6673C9.34783 24.7388 8.98763 24.8511 8.78346 24.8511C8.09804 24.8511 7.66783 24.3071 7.66783 23.7355C7.66783 23.0078 8.09804 22.6621 8.62888 22.5498C14.4083 21.2738 20.3145 21.3861 25.3516 24.399C25.7818 24.6746 26.037 24.9211 26.037 25.5628C26.037 26.2015 25.5353 26.6478 24.9651 26.6478ZM26.8653 22.0205C26.4978 22.0205 26.2499 21.8586 25.9947 21.7244C21.5833 19.114 15.0091 18.0611 9.15825 19.6492C8.81992 19.7411 8.63617 19.833 8.31825 19.833C7.56283 19.833 6.95033 19.219 6.95033 18.465C6.95033 17.7111 7.31783 17.2094 8.04408 17.0053C10.0055 16.454 12.0093 16.0442 14.9449 16.0442C19.5241 16.0442 23.9487 17.1803 27.4355 19.2555C28.0072 19.5938 28.2333 20.0328 28.2333 20.6453C28.226 21.405 27.6339 22.0205 26.8653 22.0205ZM6.99263 11.1048C9.47617 10.3771 12.2572 10.033 15.2847 10.033C20.4355 10.033 25.8343 11.1048 29.7791 13.4061C30.3303 13.724 30.6891 14.1615 30.6891 15C30.6891 15.9596 29.9118 16.6436 29.0528 16.6436L29.0514 16.6421C28.6839 16.6421 28.4578 16.5503 28.1399 16.3665C23.1174 13.3682 14.1326 12.6492 8.31971 14.2723C8.0645 14.3423 7.74658 14.4546 7.40825 14.4546C6.47638 14.4546 5.76471 13.7269 5.76471 12.7892C5.76471 11.8311 6.35825 11.2886 6.99263 11.1048Z" fill="white"/>
</g>
<defs>
<clipPath id="clip0_22_30">
<rect width="35" height="35" fill="white" transform="translate(0.360107 0.899414)"/>
</clipPath>
</defs>
</svg>
