<svg width="46" height="46" viewBox="0 0 46 46" fill="none" xmlns="http://www.w3.org/2000/svg">
<path d="M31.9934 26.5537C31.6184 26.3662 29.1809 25.2412 28.8059 25.0537C28.4309 24.8662 28.0559 24.8662 27.6809 25.2412C27.3059 25.6162 26.5559 26.7412 26.1809 27.1162C25.9934 27.4912 25.6184 27.4912 25.2434 27.3037C23.9309 26.7412 22.6184 25.9912 21.4934 25.0537C20.5559 24.1162 19.6184 22.9912 18.8684 21.8662C18.6809 21.4912 18.8684 21.1162 19.0559 20.9287C19.2434 20.7412 19.4309 20.3662 19.8059 20.1787C19.9934 19.9912 20.1809 19.6162 20.1809 19.4287C20.3684 19.2412 20.3684 18.8662 20.1809 18.6787C19.9934 18.4912 19.0559 16.2412 18.6809 15.3037C18.4934 13.9912 18.1184 13.9912 17.7434 13.9912H16.8059C16.4309 13.9912 15.8684 14.3662 15.6809 14.5537C14.5559 15.6787 13.9934 16.9912 13.9934 18.4912C14.1809 20.1787 14.7434 21.8662 15.8684 23.3662C17.9309 26.3662 20.5559 28.8037 23.7434 30.3037C24.6809 30.6787 25.4309 31.0537 26.3684 31.2412C27.3059 31.6162 28.2434 31.6162 29.3684 31.4287C30.6809 31.2412 31.8059 30.3037 32.5559 29.1787C32.9309 28.4287 32.9309 27.6787 32.7434 26.9287L31.9934 26.5537ZM36.6809 9.49121C29.3684 2.17871 17.5559 2.17871 10.2434 9.49121C4.24341 15.4912 3.11841 24.6787 7.24341 31.9912L4.61841 41.5537L14.5559 38.9287C17.3684 40.4287 20.3684 41.1787 23.3684 41.1787C33.6809 41.1787 41.9309 32.9287 41.9309 22.6162C42.1184 17.7412 40.0559 13.0537 36.6809 9.49121ZM31.6184 35.7412C29.1809 37.2412 26.3684 38.1787 23.3684 38.1787C20.5559 38.1787 17.9309 37.4287 15.4934 36.1162L14.9309 35.7412L9.11841 37.2412L10.6184 31.6162L10.2434 31.0537C5.74341 23.5537 7.99341 14.1787 15.3059 9.49121C22.6184 4.80371 31.9934 7.24121 36.4934 14.3662C40.9934 21.6787 38.9309 31.2412 31.6184 35.7412Z" fill="white"/>
</svg>
