<svg width="36" height="36" viewBox="0 0 36 36" fill="none" xmlns="http://www.w3.org/2000/svg">
<path d="M24.3833 21.3848C24.0917 21.239 22.1958 20.364 21.9042 20.2182C21.6125 20.0723 21.3208 20.0723 21.0292 20.364C20.7375 20.6557 20.1542 21.5307 19.8625 21.8223C19.7167 22.114 19.425 22.114 19.1333 21.9682C18.1125 21.5307 17.0917 20.9473 16.2167 20.2182C15.4875 19.489 14.7583 18.614 14.175 17.739C14.0292 17.4473 14.175 17.1557 14.3208 17.0098C14.4667 16.864 14.6125 16.5723 14.9042 16.4265C15.05 16.2807 15.1958 15.989 15.1958 15.8432C15.3417 15.6973 15.3417 15.4057 15.1958 15.2598C15.05 15.114 14.3208 13.364 14.0292 12.6348C13.8833 11.614 13.5917 11.614 13.3 11.614H12.5708C12.2792 11.614 11.8417 11.9057 11.6958 12.0515C10.8208 12.9265 10.3833 13.9473 10.3833 15.114C10.5292 16.4265 10.9667 17.739 11.8417 18.9057C13.4458 21.239 15.4875 23.1348 17.9667 24.3015C18.6958 24.5932 19.2792 24.8848 20.0083 25.0307C20.7375 25.3223 21.4667 25.3223 22.3417 25.1765C23.3625 25.0307 24.2375 24.3015 24.8208 23.4265C25.1125 22.8432 25.1125 22.2598 24.9667 21.6765L24.3833 21.3848ZM28.0292 8.11401C22.3417 2.42651 13.1542 2.42651 7.46668 8.11401C2.80001 12.7807 1.92501 19.9265 5.13334 25.614L3.09167 33.0515L10.8208 31.0098C13.0083 32.1765 15.3417 32.7598 17.675 32.7598C25.6958 32.7598 32.1125 26.3432 32.1125 18.3223C32.2583 14.5307 30.6542 10.8848 28.0292 8.11401ZM24.0917 28.5307C22.1958 29.6973 20.0083 30.4265 17.675 30.4265C15.4875 30.4265 13.4458 29.8432 11.55 28.8223L11.1125 28.5307L6.59168 29.6973L7.75834 25.3223L7.46668 24.8848C3.96667 19.0515 5.71667 11.7598 11.4042 8.11401C17.0917 4.46818 24.3833 6.36401 27.8833 11.9057C31.3833 17.5932 29.7792 25.0307 24.0917 28.5307Z" fill="#1B3E6B"/>
</svg>
